<svg  viewBox="0 0 276 194" fill="none" xmlns="http://www.w3.org/2000/svg">
<path d="M40.053 133.279C39.4737 138.44 37.367 142.364 33.733 145.05C30.1517 147.683 25.754 149 20.54 149H2.607C2.34367 149 2.133 148.921 1.975 148.763C1.817 148.552 1.76433 148.315 1.817 148.052L8.374 94.648C8.42667 94.3847 8.532 94.174 8.69 94.016C8.90067 93.8053 9.13767 93.7 9.401 93.7H25.991C36.8403 93.7 42.265 97.9133 42.265 106.34C42.265 107.551 42.2123 108.473 42.107 109.105C41.475 114.161 39.2367 117.848 35.392 120.165C35.1287 120.323 35.076 120.481 35.234 120.639C38.552 123.009 40.211 126.459 40.211 130.988C40.211 131.462 40.1583 132.226 40.053 133.279ZM20.224 104.918C20.0133 104.918 19.8553 105.05 19.75 105.313L18.565 115.346C18.4597 115.609 18.565 115.741 18.881 115.741H23.384C25.3327 115.741 26.86 115.188 27.966 114.082C29.072 112.923 29.625 111.317 29.625 109.263C29.625 107.894 29.2037 106.84 28.361 106.103C27.5183 105.313 26.307 104.918 24.727 104.918H20.224ZM21.409 137.703C23.2523 137.703 24.727 137.097 25.833 135.886C26.9917 134.622 27.571 132.858 27.571 130.593C27.571 129.066 27.1497 127.907 26.307 127.117C25.517 126.274 24.3847 125.853 22.91 125.853H17.617C17.3537 125.853 17.222 125.985 17.222 126.248L15.879 137.308C15.7737 137.571 15.879 137.703 16.195 137.703H21.409ZM91.5826 103.97C91.5299 104.233 91.3983 104.47 91.1876 104.681C91.0296 104.839 90.8189 104.918 90.5556 104.918H70.8056C70.5949 104.918 70.4369 105.05 70.3316 105.313L69.1466 115.188C69.1466 115.451 69.2519 115.583 69.4626 115.583H81.3916C81.9709 115.583 82.2606 115.899 82.2606 116.531L81.0756 125.853C81.0229 126.116 80.8913 126.353 80.6806 126.564C80.5226 126.722 80.3119 126.801 80.0486 126.801H68.1196C67.9089 126.801 67.7509 126.933 67.6456 127.196L66.3816 137.387C66.3816 137.65 66.5133 137.782 66.7766 137.782H86.5266C86.7899 137.782 87.0006 137.887 87.1586 138.098C87.3166 138.256 87.3693 138.467 87.3166 138.73L86.2106 148.052C86.1579 148.315 86.0263 148.552 85.8156 148.763C85.6049 148.921 85.3679 149 85.1046 149H53.1886C52.9253 149 52.7146 148.921 52.5566 148.763C52.3986 148.552 52.3459 148.315 52.3986 148.052L58.9556 94.648C59.0083 94.3847 59.1136 94.174 59.2716 94.016C59.4823 93.8053 59.7193 93.7 59.9826 93.7H91.8986C92.4779 93.7 92.7676 94.016 92.7676 94.648L91.5826 103.97ZM100.916 149C100.652 149 100.442 148.921 100.284 148.763C100.126 148.552 100.073 148.315 100.126 148.052L106.683 94.648C106.735 94.3847 106.841 94.174 106.999 94.016C107.209 93.8053 107.446 93.7 107.71 93.7H118.612C118.875 93.7 119.086 93.8053 119.244 94.016C119.402 94.174 119.454 94.3847 119.402 94.648L114.109 137.387C114.109 137.65 114.24 137.782 114.504 137.782H134.57C134.833 137.782 135.044 137.887 135.202 138.098C135.36 138.256 135.412 138.467 135.36 138.73L134.175 148.052C134.175 148.315 134.069 148.552 133.859 148.763C133.648 148.921 133.411 149 133.148 149H100.916ZM148.334 149C148.071 149 147.86 148.921 147.702 148.763C147.544 148.552 147.492 148.315 147.544 148.052L154.101 94.648C154.154 94.3847 154.259 94.174 154.417 94.016C154.628 93.8053 154.865 93.7 155.128 93.7H166.03C166.294 93.7 166.504 93.8053 166.662 94.016C166.82 94.174 166.873 94.3847 166.82 94.648L160.263 148.052C160.211 148.315 160.079 148.552 159.868 148.763C159.71 148.921 159.5 149 159.236 149H148.334ZM188.165 148.842C187.586 148.842 187.296 148.526 187.296 147.894L189.666 128.855V128.381L180.502 94.806L180.423 94.49C180.423 94.2793 180.502 94.095 180.66 93.937C180.871 93.779 181.108 93.7 181.371 93.7H193.063C193.537 93.7 193.827 93.9633 193.932 94.49L197.803 113.213C197.803 113.371 197.856 113.45 197.961 113.45C198.119 113.45 198.224 113.371 198.277 113.213L206.651 94.49C206.914 93.9633 207.283 93.7 207.757 93.7H219.449C219.765 93.7 219.976 93.8053 220.081 94.016C220.186 94.2267 220.16 94.49 220.002 94.806L202.543 128.381C202.438 128.539 202.385 128.697 202.385 128.855L200.015 147.894C200.015 148.157 199.91 148.394 199.699 148.605C199.488 148.763 199.251 148.842 198.988 148.842H188.165Z" fill="black"/>
<path d="M5.712 189.192C4.16 189.192 2.936 188.816 2.04 188.064C1.144 187.296 0.696 186.272 0.696 184.992C0.696 184.864 0.712 184.656 0.744 184.368L0.84 183.744C0.856 183.664 0.888 183.6 0.936 183.552C1 183.488 1.072 183.456 1.152 183.456H4.416C4.496 183.456 4.56 183.488 4.608 183.552C4.656 183.6 4.672 183.664 4.656 183.744L4.608 184.176C4.544 184.624 4.664 185.008 4.968 185.328C5.272 185.632 5.712 185.784 6.288 185.784C6.816 185.784 7.216 185.64 7.488 185.352C7.776 185.048 7.92 184.696 7.92 184.296C7.92 183.928 7.76 183.616 7.44 183.36C7.12 183.104 6.504 182.728 5.592 182.232C4.824 181.816 4.168 181.424 3.624 181.056C3.096 180.672 2.64 180.176 2.256 179.568C1.872 178.96 1.68 178.248 1.68 177.432C1.68 176.376 1.944 175.44 2.472 174.624C3 173.792 3.72 173.152 4.632 172.704C5.544 172.24 6.552 172.008 7.656 172.008C9.16 172.008 10.36 172.408 11.256 173.208C12.168 174.008 12.624 175.064 12.624 176.376C12.624 176.504 12.608 176.728 12.576 177.048L12.528 177.504C12.512 177.584 12.472 177.656 12.408 177.72C12.344 177.768 12.272 177.792 12.192 177.792H8.952C8.776 177.792 8.688 177.696 8.688 177.504L8.76 177.096C8.808 176.632 8.688 176.24 8.4 175.92C8.112 175.584 7.688 175.416 7.128 175.416C6.696 175.416 6.336 175.536 6.048 175.776C5.776 176.016 5.608 176.344 5.544 176.76C5.512 177.064 5.568 177.336 5.712 177.576C5.856 177.8 6.096 178.024 6.432 178.248C6.768 178.472 7.288 178.776 7.992 179.16L8.664 179.568C9.384 180.016 9.944 180.4 10.344 180.72C10.76 181.04 11.112 181.448 11.4 181.944C11.688 182.44 11.832 183.024 11.832 183.696C11.832 183.824 11.816 184.032 11.784 184.32C11.592 185.824 10.936 187.016 9.816 187.896C8.712 188.76 7.344 189.192 5.712 189.192ZM28.1475 172.2C28.3235 172.2 28.4115 172.296 28.4115 172.488L28.0515 175.344C28.0355 175.424 27.9955 175.496 27.9315 175.56C27.8835 175.608 27.8195 175.632 27.7395 175.632H24.2355C24.1555 175.632 24.1155 175.672 24.1155 175.752L22.5315 188.712C22.5155 188.792 22.4755 188.864 22.4115 188.928C22.3475 188.976 22.2755 189 22.1955 189H18.9075C18.8275 189 18.7635 188.976 18.7155 188.928C18.6675 188.864 18.6515 188.792 18.6675 188.712L20.2515 175.752C20.2515 175.672 20.2195 175.632 20.1555 175.632H16.7955C16.7155 175.632 16.6515 175.608 16.6035 175.56C16.5555 175.496 16.5395 175.424 16.5555 175.344L16.8915 172.488C16.9075 172.408 16.9475 172.344 17.0115 172.296C17.0755 172.232 17.1475 172.2 17.2275 172.2H28.1475ZM38.0231 189C37.8631 189 37.7671 188.92 37.7351 188.76L36.3431 182.4C36.3111 182.336 36.2711 182.304 36.2231 182.304H35.2871C35.2551 182.304 35.2231 182.32 35.1911 182.352C35.1751 182.368 35.1671 182.392 35.1671 182.424L34.3991 188.712C34.3831 188.792 34.3431 188.864 34.2791 188.928C34.2311 188.976 34.1671 189 34.0871 189H30.7751C30.6951 189 30.6311 188.976 30.5831 188.928C30.5351 188.864 30.5191 188.792 30.5351 188.712L32.5271 172.488C32.5431 172.408 32.5751 172.344 32.6231 172.296C32.6871 172.232 32.7591 172.2 32.8391 172.2H38.7911C40.1031 172.2 41.1431 172.6 41.9111 173.4C42.6791 174.184 43.0631 175.24 43.0631 176.568C43.0631 176.936 43.0471 177.216 43.0151 177.408C42.9031 178.4 42.5911 179.28 42.0791 180.048C41.5671 180.8 40.9111 181.368 40.1111 181.752C40.0631 181.768 40.0391 181.816 40.0391 181.896L41.7671 188.664V188.736C41.7671 188.912 41.6711 189 41.4791 189H38.0231ZM36.1271 175.608C36.0631 175.608 36.0151 175.648 35.9831 175.728L35.5751 179.136C35.5431 179.216 35.5751 179.256 35.6711 179.256H37.3031C37.8631 179.256 38.3191 179.064 38.6711 178.68C39.0231 178.296 39.1991 177.776 39.1991 177.12C39.1991 176.656 39.0631 176.288 38.7911 176.016C38.5351 175.744 38.1911 175.608 37.7591 175.608H36.1271ZM57.8291 175.32C57.8131 175.4 57.7731 175.472 57.7091 175.536C57.6611 175.584 57.5971 175.608 57.5171 175.608H51.5171C51.4531 175.608 51.4051 175.648 51.3731 175.728L51.0131 178.728C51.0131 178.808 51.0451 178.848 51.1091 178.848H54.7331C54.9091 178.848 54.9971 178.944 54.9971 179.136L54.6371 181.968C54.6211 182.048 54.5811 182.12 54.5171 182.184C54.4691 182.232 54.4051 182.256 54.3251 182.256H50.7011C50.6371 182.256 50.5891 182.296 50.5571 182.376L50.1731 185.472C50.1731 185.552 50.2131 185.592 50.2931 185.592H56.2931C56.3731 185.592 56.4371 185.624 56.4851 185.688C56.5331 185.736 56.5491 185.8 56.5331 185.88L56.1971 188.712C56.1811 188.792 56.1411 188.864 56.0771 188.928C56.0131 188.976 55.9411 189 55.8611 189H46.1651C46.0851 189 46.0211 188.976 45.9731 188.928C45.9251 188.864 45.9091 188.792 45.9251 188.712L47.9171 172.488C47.9331 172.408 47.9651 172.344 48.0131 172.296C48.0771 172.232 48.1491 172.2 48.2291 172.2H57.9251C58.1011 172.2 58.1891 172.296 58.1891 172.488L57.8291 175.32ZM65.5845 189.192C64.0325 189.192 62.8085 188.816 61.9125 188.064C61.0165 187.296 60.5685 186.272 60.5685 184.992C60.5685 184.864 60.5845 184.656 60.6165 184.368L60.7125 183.744C60.7285 183.664 60.7605 183.6 60.8085 183.552C60.8725 183.488 60.9445 183.456 61.0245 183.456H64.2885C64.3685 183.456 64.4325 183.488 64.4805 183.552C64.5285 183.6 64.5445 183.664 64.5285 183.744L64.4805 184.176C64.4165 184.624 64.5365 185.008 64.8405 185.328C65.1445 185.632 65.5845 185.784 66.1605 185.784C66.6885 185.784 67.0885 185.64 67.3605 185.352C67.6485 185.048 67.7925 184.696 67.7925 184.296C67.7925 183.928 67.6325 183.616 67.3125 183.36C66.9925 183.104 66.3765 182.728 65.4645 182.232C64.6965 181.816 64.0405 181.424 63.4965 181.056C62.9685 180.672 62.5125 180.176 62.1285 179.568C61.7445 178.96 61.5525 178.248 61.5525 177.432C61.5525 176.376 61.8165 175.44 62.3445 174.624C62.8725 173.792 63.5925 173.152 64.5045 172.704C65.4165 172.24 66.4245 172.008 67.5285 172.008C69.0325 172.008 70.2325 172.408 71.1285 173.208C72.0405 174.008 72.4965 175.064 72.4965 176.376C72.4965 176.504 72.4805 176.728 72.4485 177.048L72.4005 177.504C72.3845 177.584 72.3445 177.656 72.2805 177.72C72.2165 177.768 72.1445 177.792 72.0645 177.792H68.8245C68.6485 177.792 68.5605 177.696 68.5605 177.504L68.6325 177.096C68.6805 176.632 68.5605 176.24 68.2725 175.92C67.9845 175.584 67.5605 175.416 67.0005 175.416C66.5685 175.416 66.2085 175.536 65.9205 175.776C65.6485 176.016 65.4805 176.344 65.4165 176.76C65.3845 177.064 65.4405 177.336 65.5845 177.576C65.7285 177.8 65.9685 178.024 66.3045 178.248C66.6405 178.472 67.1605 178.776 67.8645 179.16L68.5365 179.568C69.2565 180.016 69.8165 180.4 70.2165 180.72C70.6325 181.04 70.9845 181.448 71.2725 181.944C71.5605 182.44 71.7045 183.024 71.7045 183.696C71.7045 183.824 71.6885 184.032 71.6565 184.32C71.4645 185.824 70.8085 187.016 69.6885 187.896C68.5845 188.76 67.2165 189.192 65.5845 189.192ZM80.4823 189.192C78.9303 189.192 77.7063 188.816 76.8103 188.064C75.9143 187.296 75.4663 186.272 75.4663 184.992C75.4663 184.864 75.4823 184.656 75.5143 184.368L75.6103 183.744C75.6263 183.664 75.6583 183.6 75.7063 183.552C75.7703 183.488 75.8423 183.456 75.9223 183.456H79.1863C79.2663 183.456 79.3303 183.488 79.3783 183.552C79.4263 183.6 79.4423 183.664 79.4263 183.744L79.3783 184.176C79.3143 184.624 79.4343 185.008 79.7383 185.328C80.0423 185.632 80.4823 185.784 81.0583 185.784C81.5863 185.784 81.9863 185.64 82.2583 185.352C82.5463 185.048 82.6903 184.696 82.6903 184.296C82.6903 183.928 82.5303 183.616 82.2103 183.36C81.8903 183.104 81.2743 182.728 80.3623 182.232C79.5943 181.816 78.9383 181.424 78.3943 181.056C77.8663 180.672 77.4103 180.176 77.0263 179.568C76.6423 178.96 76.4503 178.248 76.4503 177.432C76.4503 176.376 76.7143 175.44 77.2423 174.624C77.7703 173.792 78.4903 173.152 79.4023 172.704C80.3143 172.24 81.3223 172.008 82.4263 172.008C83.9303 172.008 85.1303 172.408 86.0263 173.208C86.9383 174.008 87.3943 175.064 87.3943 176.376C87.3943 176.504 87.3783 176.728 87.3463 177.048L87.2983 177.504C87.2823 177.584 87.2423 177.656 87.1783 177.72C87.1143 177.768 87.0423 177.792 86.9623 177.792H83.7223C83.5463 177.792 83.4583 177.696 83.4583 177.504L83.5303 177.096C83.5783 176.632 83.4583 176.24 83.1703 175.92C82.8823 175.584 82.4583 175.416 81.8983 175.416C81.4663 175.416 81.1063 175.536 80.8183 175.776C80.5463 176.016 80.3783 176.344 80.3143 176.76C80.2823 177.064 80.3383 177.336 80.4823 177.576C80.6263 177.8 80.8663 178.024 81.2023 178.248C81.5383 178.472 82.0583 178.776 82.7623 179.16L83.4343 179.568C84.1543 180.016 84.7143 180.4 85.1143 180.72C85.5303 181.04 85.8823 181.448 86.1703 181.944C86.4583 182.44 86.6023 183.024 86.6023 183.696C86.6023 183.824 86.5863 184.032 86.5543 184.32C86.3623 185.824 85.7063 187.016 84.5863 187.896C83.4823 188.76 82.1143 189.192 80.4823 189.192ZM93.2325 189C93.0565 189 92.9605 188.92 92.9445 188.76L91.1685 172.512C91.1685 172.304 91.2725 172.2 91.4805 172.2H94.9365C95.1125 172.2 95.2005 172.288 95.2005 172.464L95.7285 180.792C95.7285 180.84 95.7445 180.864 95.7765 180.864C95.8245 180.864 95.8565 180.84 95.8725 180.792L98.3205 172.464C98.3685 172.288 98.4805 172.2 98.6565 172.2H101.657C101.833 172.2 101.921 172.288 101.921 172.464L102.473 180.792C102.489 180.84 102.513 180.864 102.545 180.864C102.577 180.864 102.601 180.84 102.617 180.792L105.041 172.464C105.089 172.288 105.201 172.2 105.377 172.2H108.737C108.945 172.2 109.017 172.304 108.953 172.512L103.505 188.736C103.457 188.912 103.345 189 103.169 189H100.025C99.8485 189 99.7605 188.912 99.7605 188.736L99.2325 179.976C99.2165 179.928 99.1925 179.904 99.1605 179.904C99.1285 179.904 99.1045 179.928 99.0885 179.976L96.6165 188.736C96.5685 188.912 96.4565 189 96.2805 189H93.2325ZM122.952 175.32C122.936 175.4 122.896 175.472 122.832 175.536C122.784 175.584 122.72 175.608 122.64 175.608H116.64C116.576 175.608 116.528 175.648 116.496 175.728L116.136 178.728C116.136 178.808 116.168 178.848 116.232 178.848H119.856C120.032 178.848 120.12 178.944 120.12 179.136L119.76 181.968C119.744 182.048 119.704 182.12 119.64 182.184C119.592 182.232 119.528 182.256 119.448 182.256H115.824C115.76 182.256 115.712 182.296 115.68 182.376L115.296 185.472C115.296 185.552 115.336 185.592 115.416 185.592H121.416C121.496 185.592 121.56 185.624 121.608 185.688C121.656 185.736 121.672 185.8 121.656 185.88L121.32 188.712C121.304 188.792 121.264 188.864 121.2 188.928C121.136 188.976 121.064 189 120.984 189H111.288C111.208 189 111.144 188.976 111.096 188.928C111.048 188.864 111.032 188.792 111.048 188.712L113.04 172.488C113.056 172.408 113.088 172.344 113.136 172.296C113.2 172.232 113.272 172.2 113.352 172.2H123.048C123.224 172.2 123.312 172.296 123.312 172.488L122.952 175.32ZM134.496 189C134.32 189 134.232 188.912 134.232 188.736L134.016 186.624C134 186.56 133.968 186.528 133.92 186.528H129.984C129.936 186.528 129.888 186.56 129.84 186.624L129.12 188.736C129.072 188.912 128.96 189 128.784 189H125.376C125.184 189 125.12 188.896 125.184 188.688L131.328 172.44C131.392 172.28 131.512 172.2 131.688 172.2H135.768C135.944 172.2 136.04 172.28 136.056 172.44L138.24 188.688V188.736C138.24 188.912 138.144 189 137.952 189H134.496ZM130.944 183.336C130.928 183.416 130.968 183.456 131.064 183.456H133.536C133.632 183.456 133.68 183.408 133.68 183.312L133.104 177.36C133.104 177.296 133.088 177.264 133.056 177.264C133.024 177.264 132.992 177.296 132.96 177.36L130.944 183.336ZM149.808 189C149.648 189 149.552 188.92 149.52 188.76L148.128 182.4C148.096 182.336 148.056 182.304 148.008 182.304H147.072C147.04 182.304 147.008 182.32 146.976 182.352C146.96 182.368 146.952 182.392 146.952 182.424L146.184 188.712C146.168 188.792 146.128 188.864 146.064 188.928C146.016 188.976 145.952 189 145.872 189H142.56C142.48 189 142.416 188.976 142.368 188.928C142.32 188.864 142.304 188.792 142.32 188.712L144.312 172.488C144.328 172.408 144.36 172.344 144.408 172.296C144.472 172.232 144.544 172.2 144.624 172.2H150.576C151.888 172.2 152.928 172.6 153.696 173.4C154.464 174.184 154.848 175.24 154.848 176.568C154.848 176.936 154.832 177.216 154.8 177.408C154.688 178.4 154.376 179.28 153.864 180.048C153.352 180.8 152.696 181.368 151.896 181.752C151.848 181.768 151.824 181.816 151.824 181.896L153.552 188.664V188.736C153.552 188.912 153.456 189 153.264 189H149.808ZM147.912 175.608C147.848 175.608 147.8 175.648 147.768 175.728L147.36 179.136C147.328 179.216 147.36 179.256 147.456 179.256H149.088C149.648 179.256 150.104 179.064 150.456 178.68C150.808 178.296 150.984 177.776 150.984 177.12C150.984 176.656 150.848 176.288 150.576 176.016C150.32 175.744 149.976 175.608 149.544 175.608H147.912Z" fill="black"/>
<path d="M179.228 0.5L200.581 33.5H129.772L108.419 0.5H179.228ZM129.762 34.5H200.62L185.571 59.744L185.12 60.5H186H261.25L268 69.5H1.12268L9.22268 60.5H111.5H111.762L111.911 60.2846L129.762 34.5Z" fill="#050505" stroke="white"/>
<path d="M163 178H268.5L275.5 189H170.5L163 178Z" fill="black"/>
</svg>